<?xml version="1.0" encoding="UTF-8"?>
<svg xmlns="http://www.w3.org/2000/svg" xmlns:xlink="http://www.w3.org/1999/xlink" width="656px" height="149px" viewBox="0 0 495 149" version="1.1">
<g id="surface1">
<path style=" stroke:none;fill-rule:nonzero;fill:rgb(18.431373%,75.294118%,58.823529%);fill-opacity:1;" d="M 91.050781 51.878906 L 43.132812 51.878906 L 0 145.160156 L 27.824219 145.160156 L 59.332031 77.261719 L 91.050781 77.261719 C 97.921875 77.070312 103.390625 71.441406 103.390625 64.570312 C 103.390625 57.695312 97.921875 52.070312 91.050781 51.878906 Z M 91.050781 0.078125 L 61.316406 0.078125 L 49.539062 25.460938 L 91.050781 25.460938 C 112.648438 25.460938 130.152344 42.96875 130.152344 64.5625 C 130.152344 86.160156 112.648438 103.667969 91.050781 103.667969 L 74.84375 103.667969 L 63.035156 128.992188 C 63.4375 129.03125 63.84375 129.050781 64.246094 129.050781 L 91.050781 129.050781 C 126.667969 129.050781 155.539062 100.179688 155.539062 64.5625 C 155.539062 28.949219 126.667969 0.078125 91.050781 0.078125 Z M 91.050781 0.078125 "/>
<path style=" stroke:none;fill-rule:nonzero;fill:rgb(0%,0%,0%);fill-opacity:1;" d="M 205.117188 38.558594 C 190.699219 38.558594 180.632812 48.875 180.632812 63.644531 L 180.632812 146.160156 C 180.605469 146.898438 180.886719 147.613281 181.410156 148.132812 C 181.933594 148.65625 182.644531 148.9375 183.382812 148.910156 L 189.007812 148.910156 C 189.746094 148.9375 190.457031 148.65625 190.980469 148.132812 C 191.503906 147.613281 191.785156 146.898438 191.757812 146.160156 L 191.757812 114.390625 C 195.707031 118.183594 201.015625 120.21875 206.488281 120.046875 C 219.664062 120.046875 229.601562 109.257812 229.601562 94.953125 L 229.601562 63.644531 C 229.628906 48.875 219.5625 38.558594 205.117188 38.558594 Z M 191.789062 63.644531 C 191.789062 54.980469 197.03125 49.375 205.144531 49.375 C 213.261719 49.375 218.503906 54.980469 218.503906 63.644531 L 218.503906 94.953125 C 218.503906 103.617188 213.261719 109.21875 205.144531 109.21875 C 197.03125 109.21875 191.789062 103.617188 191.789062 94.953125 Z M 191.789062 63.644531 "/>
<path style=" stroke:none;fill-rule:nonzero;fill:rgb(0%,0%,0%);fill-opacity:1;" d="M 272.304688 39.621094 L 265.621094 39.621094 C 251.082031 39.621094 240.527344 49.976562 240.527344 64.253906 L 240.527344 115.773438 C 240.5 116.511719 240.78125 117.226562 241.304688 117.746094 C 241.824219 118.269531 242.539062 118.550781 243.277344 118.523438 L 248.902344 118.523438 C 249.640625 118.550781 250.355469 118.269531 250.878906 117.746094 C 251.402344 117.226562 251.683594 116.511719 251.664062 115.773438 L 251.664062 64.253906 C 251.664062 55.738281 257.003906 50.445312 265.671875 50.445312 L 272.355469 50.445312 C 273.09375 50.472656 273.8125 50.1875 274.335938 49.664062 C 274.859375 49.140625 275.140625 48.425781 275.117188 47.683594 L 275.117188 42.371094 C 275.140625 41.625 274.851562 40.898438 274.316406 40.375 C 273.78125 39.851562 273.050781 39.578125 272.304688 39.621094 Z M 272.304688 39.621094 "/>
<path style=" stroke:none;fill-rule:nonzero;fill:rgb(0%,0%,0%);fill-opacity:1;" d="M 304.371094 86.765625 C 318.550781 86.765625 328.855469 76.910156 328.855469 63.34375 C 328.855469 48.835938 318.78125 38.699219 304.371094 38.699219 C 289.722656 38.699219 279.886719 48.84375 279.886719 63.953125 L 279.886719 94.800781 C 279.886719 109.808594 289.722656 119.894531 304.371094 119.894531 C 318.441406 119.894531 328.226562 109.828125 328.707031 94.800781 C 328.730469 94.0625 328.449219 93.347656 327.925781 92.824219 C 327.402344 92.300781 326.683594 92.023438 325.945312 92.050781 L 320.320312 92.050781 C 319.582031 91.996094 318.859375 92.265625 318.332031 92.785156 C 317.804688 93.300781 317.527344 94.023438 317.570312 94.761719 C 317.289062 103.457031 312.105469 109.070312 304.371094 109.070312 C 296.257812 109.070312 291.015625 103.464844 291.015625 94.800781 L 291.015625 86.796875 Z M 291.015625 63.953125 C 291.015625 54.949219 296.015625 49.535156 304.371094 49.535156 C 312.476562 49.535156 317.71875 54.949219 317.71875 63.34375 C 317.71875 70.988281 312.476562 75.941406 304.371094 75.941406 L 291.015625 75.941406 Z M 291.015625 63.953125 "/>
<path style=" stroke:none;fill-rule:nonzero;fill:rgb(0%,0%,0%);fill-opacity:1;" d="M 363.886719 73.808594 C 355.769531 70.386719 348.757812 67.4375 348.757812 60.300781 C 348.757812 53.769531 353.761719 49.375 361.203125 49.375 C 368.648438 49.375 373.339844 54.046875 373.792969 62.113281 C 373.742188 62.859375 374.019531 63.585938 374.546875 64.113281 C 375.078125 64.640625 375.808594 64.914062 376.554688 64.863281 L 382.214844 64.863281 C 382.945312 64.875 383.644531 64.589844 384.15625 64.066406 C 384.667969 63.546875 384.941406 62.839844 384.917969 62.113281 C 384.246094 47.164062 375.441406 38.601562 360.742188 38.601562 C 347.566406 38.601562 337.621094 47.945312 337.621094 60.34375 C 337.621094 74.871094 349.109375 79.753906 359.234375 84.054688 C 367.617188 87.617188 374.863281 90.699219 374.863281 98.332031 C 374.863281 105.277344 370.320312 109.257812 362.414062 109.257812 C 353.128906 109.257812 348.40625 104.578125 347.996094 94.992188 C 348.046875 94.246094 347.773438 93.515625 347.246094 92.988281 C 346.71875 92.460938 345.988281 92.1875 345.246094 92.238281 L 339.621094 92.238281 C 338.886719 92.214844 338.171875 92.496094 337.648438 93.019531 C 337.125 93.539062 336.84375 94.253906 336.871094 94.992188 L 336.871094 95.042969 C 337.519531 110.492188 347.304688 120.054688 362.414062 120.054688 C 375.851562 120.054688 385.988281 110.699219 385.988281 98.304688 C 385.988281 83.125 374.210938 78.171875 363.886719 73.808594 Z M 363.886719 73.808594 "/>
<path style=" stroke:none;fill-rule:nonzero;fill:rgb(0%,0%,0%);fill-opacity:1;" d="M 418.785156 86.765625 C 432.976562 86.765625 443.269531 76.910156 443.269531 63.34375 C 443.25 48.835938 433.246094 38.699219 418.785156 38.699219 C 404.136719 38.699219 394.304688 48.84375 394.304688 63.953125 L 394.304688 94.800781 C 394.304688 109.808594 404.136719 119.894531 418.785156 119.894531 C 432.863281 119.894531 442.640625 109.828125 443.121094 94.800781 C 443.144531 94.0625 442.863281 93.347656 442.34375 92.828125 C 441.820312 92.304688 441.105469 92.023438 440.367188 92.050781 L 434.746094 92.050781 C 434.007812 91.996094 433.285156 92.265625 432.757812 92.785156 C 432.230469 93.300781 431.953125 94.023438 431.996094 94.761719 C 431.703125 103.457031 426.519531 109.070312 418.785156 109.070312 C 410.671875 109.070312 405.429688 103.464844 405.429688 94.800781 L 405.429688 86.796875 Z M 405.429688 63.953125 C 405.429688 54.949219 410.433594 49.535156 418.785156 49.535156 C 426.902344 49.535156 432.144531 54.949219 432.144531 63.34375 C 432.144531 70.988281 426.902344 75.941406 418.785156 75.941406 L 405.429688 75.941406 Z M 405.429688 63.953125 "/>
<path style=" stroke:none;fill-rule:nonzero;fill:rgb(0%,0%,0%);fill-opacity:1;" d="M 478.410156 108.1875 L 476.410156 108.1875 C 468.753906 108.1875 464.871094 102.824219 464.871094 92.25 L 464.871094 50.9375 L 476.558594 50.9375 C 477.296875 50.960938 478.011719 50.675781 478.535156 50.152344 C 479.054688 49.628906 479.335938 48.914062 479.3125 48.175781 L 479.3125 43.011719 C 479.335938 42.273438 479.054688 41.558594 478.53125 41.039062 C 478.011719 40.515625 477.296875 40.234375 476.558594 40.261719 L 464.902344 40.261719 L 464.902344 21.738281 C 464.929688 21.003906 464.648438 20.285156 464.125 19.761719 C 463.605469 19.238281 462.890625 18.957031 462.152344 18.980469 L 456.527344 18.980469 C 455.789062 18.957031 455.074219 19.238281 454.554688 19.761719 C 454.03125 20.285156 453.75 21.003906 453.777344 21.738281 L 453.777344 92.25 C 453.777344 109.007812 462.242188 119.015625 476.441406 119.015625 L 478.441406 119.015625 C 479.179688 119.042969 479.894531 118.761719 480.417969 118.242188 C 480.941406 117.71875 481.21875 117 481.191406 116.261719 L 481.191406 110.941406 C 481.242188 110.191406 480.964844 109.457031 480.433594 108.925781 C 479.898438 108.398438 479.160156 108.128906 478.410156 108.1875 Z M 478.410156 108.1875 "/>
<path style=" stroke:none;fill-rule:nonzero;fill:rgb(0%,0%,0%);fill-opacity:1;" d="M 484.273438 27.09375 L 482.363281 27.09375 L 482.363281 25.941406 L 487.546875 25.941406 L 487.546875 27.09375 L 485.632812 27.09375 L 485.632812 32.265625 L 484.273438 32.265625 Z M 484.273438 27.09375 "/>
<path style=" stroke:none;fill-rule:nonzero;fill:rgb(0%,0%,0%);fill-opacity:1;" d="M 493.6875 29.863281 C 493.6875 28.792969 493.6875 27.59375 493.6875 26.863281 C 493.390625 28.144531 492.757812 30.234375 492.160156 32.207031 L 490.996094 32.207031 C 490.539062 30.484375 489.886719 28.105469 489.617188 26.84375 C 489.675781 27.582031 489.695312 28.84375 489.695312 29.953125 L 489.695312 32.207031 L 488.457031 32.207031 L 488.457031 25.941406 L 490.457031 25.941406 C 490.949219 27.582031 491.457031 29.644531 491.6875 30.574219 C 491.839844 29.753906 492.527344 27.574219 493.058594 25.941406 L 495.058594 25.941406 L 495.058594 32.226562 L 493.75 32.226562 Z M 493.6875 29.863281 "/>
</g>
</svg>
